<svg xmlns="http://www.w3.org/2000/svg" width="288.344" height="38.156" viewBox="0 0 288.344 38.156">
  <metadata><?xpacket begin="﻿" id="W5M0MpCehiHzreSzNTczkc9d"?>
<x:xmpmeta xmlns:x="adobe:ns:meta/" x:xmptk="Adobe XMP Core 5.6-c142 79.160924, 2017/07/13-01:06:39        ">
   <rdf:RDF xmlns:rdf="http://www.w3.org/1999/02/22-rdf-syntax-ns#">
      <rdf:Description rdf:about=""/>
   </rdf:RDF>
</x:xmpmeta>
                                                                                                    
                                                                                                    
                                                                                                    
                                                                                                    
                                                                                                    
                                                                                                    
                                                                                                    
                                                                                                    
                                                                                                    
                                                                                                    
                                                                                                    
                                                                                                    
                                                                                                    
                                                                                                    
                                                                                                    
                                                                                                    
                                                                                                    
                                                                                                    
                                                                                                    
                                                                                                    
                           
<?xpacket end="w"?></metadata>
<defs>
    <style>
      .cls-1 {
        fill: #fff;
        stroke: #fff;
        stroke-width: 1px;
        fill-rule: evenodd;
      }
    </style>
  </defs>
  <path id="Division_One" data-name="Division One" class="cls-1" d="M30.111,37.1Q25.5,32.487,17.172,32.487H6.234V68.18h9.888q9.009,0,13.806-4.675t4.8-13.513Q34.726,41.715,30.111,37.1ZM26.6,60.941q-3.735,3.65-11.157,3.65H10.385V36.076h6.03q6.909,0,10.413,3.54t3.5,10.523Q30.331,57.292,26.6,60.941ZM46.127,41.422H42.074V68.18h4.053V41.422ZM42.416,36.21a2.34,2.34,0,0,0,1.709.671,2.364,2.364,0,0,0,1.685-.671,2.685,2.685,0,0,0,.708-2.039,2.644,2.644,0,0,0-.708-2.026,2.531,2.531,0,0,0-3.393-.012,2.692,2.692,0,0,0-.684,2.039A2.741,2.741,0,0,0,42.416,36.21Zm22.9,31.97L75.473,41.422H71.127q-4.98,13.672-6.409,17.737a54.565,54.565,0,0,0-1.7,5.359h-0.2a75.217,75.217,0,0,0-2.295-7.227L54.769,41.422H50.424L60.58,68.18h4.736ZM83.822,41.422H79.769V68.18h4.053V41.422ZM80.111,36.21a2.34,2.34,0,0,0,1.709.671A2.364,2.364,0,0,0,83.5,36.21a2.685,2.685,0,0,0,.708-2.039,2.644,2.644,0,0,0-.708-2.026,2.531,2.531,0,0,0-3.394-.012,2.692,2.692,0,0,0-.684,2.039A2.741,2.741,0,0,0,80.111,36.21ZM108,56.461q-1.673-1.758-6.433-3.491a39.482,39.482,0,0,1-4.687-1.977,5.415,5.415,0,0,1-1.77-1.44,3.032,3.032,0,0,1-.549-1.831,2.793,2.793,0,0,1,1.465-2.49,8.4,8.4,0,0,1,4.346-.9,19.4,19.4,0,0,1,7.3,1.66l1.44-3.3a21.358,21.358,0,0,0-8.447-1.758,12.4,12.4,0,0,0-7.3,1.892,6,6,0,0,0-2.661,5.164,6.144,6.144,0,0,0,.769,3.149A7.252,7.252,0,0,0,93.82,53.5a28.641,28.641,0,0,0,5.31,2.429,21.322,21.322,0,0,1,5.285,2.624,3.488,3.488,0,0,1-.354,5.762,9.66,9.66,0,0,1-4.882,1.013,17.268,17.268,0,0,1-4.26-.561,20.047,20.047,0,0,1-4.138-1.538v3.76q2.978,1.685,8.3,1.685,5.03,0,7.812-2.026a6.7,6.7,0,0,0,2.784-5.762A6.157,6.157,0,0,0,108,56.461Zm12.317-15.039h-4.053V68.18h4.053V41.422ZM116.61,36.21a2.48,2.48,0,0,0,3.394,0,2.684,2.684,0,0,0,.708-2.039A2.643,2.643,0,0,0,120,32.145a2.531,2.531,0,0,0-3.394-.012,2.691,2.691,0,0,0-.683,2.039A2.74,2.74,0,0,0,116.61,36.21Zm32.093,8.46a11.321,11.321,0,0,0-8.924-3.735q-5.811,0-9.082,3.65t-3.271,10.193a16.848,16.848,0,0,0,1.513,7.373,11.12,11.12,0,0,0,4.3,4.834,12.063,12.063,0,0,0,6.372,1.685q5.811,0,9.107-3.674t3.3-10.217Q152.011,48.4,148.7,44.669Zm-15.052,2.319a7.134,7.134,0,0,1,6.006-2.612,7.247,7.247,0,0,1,6.091,2.649q2.064,2.649,2.063,7.752,0,5.151-2.063,7.825a8.138,8.138,0,0,1-12.072-.012q-2.052-2.685-2.051-7.812Q131.625,49.6,133.651,46.989ZM181.478,68.18V50.724q0-5.127-2.441-7.458t-7.275-2.332a11.344,11.344,0,0,0-5,1.086,8.28,8.28,0,0,0-3.492,3.064H163.07l-0.659-3.662h-3.3V68.18h4.053V54.142q0-5.224,1.953-7.5t6.152-2.271a6.067,6.067,0,0,1,4.663,1.611,6.983,6.983,0,0,1,1.49,4.883V68.18h4.052Zm48.584-31.372q-4.32-4.883-12.011-4.883-7.911,0-12.207,4.8t-4.3,13.513q0,8.789,4.284,13.611T218,68.668q7.714,0,12.048-4.907t4.334-13.477Q234.384,41.691,230.062,36.808ZM209.03,39.384q3.087-3.747,9.021-3.748,5.907,0,8.923,3.723t3.015,10.925q0,7.276-3.027,11.011T218,65.031q-5.885,0-8.972-3.748t-3.089-11Q205.941,43.131,209.03,39.384ZM264.1,68.18V50.724q0-5.127-2.442-7.458t-7.275-2.332a11.344,11.344,0,0,0-5,1.086,8.271,8.271,0,0,0-3.491,3.064h-0.2l-0.659-3.662h-3.3V68.18h4.053V54.142q0-5.224,1.953-7.5t6.152-2.271a6.069,6.069,0,0,1,4.664,1.611,6.988,6.988,0,0,1,1.489,4.883V68.18H264.1Zm24.255,0.085a21.46,21.46,0,0,0,4.065-1.331V63.322a21.548,21.548,0,0,1-8.545,1.807,8.232,8.232,0,0,1-6.36-2.441q-2.259-2.441-2.38-7.153h18.432V52.97a12.68,12.68,0,0,0-2.929-8.728,10.092,10.092,0,0,0-7.959-3.308,10.582,10.582,0,0,0-8.557,3.809q-3.186,3.809-3.186,10.278,0,6.421,3.43,10.034t9.362,3.613A22.846,22.846,0,0,0,288.351,68.266Zm-0.842-21.9a8.913,8.913,0,0,1,1.709,5.872h-13.99a9.678,9.678,0,0,1,2.259-5.81,6.617,6.617,0,0,1,5.139-2.1A6.018,6.018,0,0,1,287.509,46.366Z" transform="translate(-5.719 -31)"/>
</svg>
