<svg xmlns="http://www.w3.org/2000/svg" width="287.188" height="38.188" viewBox="0 0 287.188 38.188">
  <metadata><?xpacket begin="﻿" id="W5M0MpCehiHzreSzNTczkc9d"?>
<x:xmpmeta xmlns:x="adobe:ns:meta/" x:xmptk="Adobe XMP Core 5.6-c142 79.160924, 2017/07/13-01:06:39        ">
   <rdf:RDF xmlns:rdf="http://www.w3.org/1999/02/22-rdf-syntax-ns#">
      <rdf:Description rdf:about=""/>
   </rdf:RDF>
</x:xmpmeta>
                                                                                                    
                                                                                                    
                                                                                                    
                                                                                                    
                                                                                                    
                                                                                                    
                                                                                                    
                                                                                                    
                                                                                                    
                                                                                                    
                                                                                                    
                                                                                                    
                                                                                                    
                                                                                                    
                                                                                                    
                                                                                                    
                                                                                                    
                                                                                                    
                                                                                                    
                                                                                                    
                           
<?xpacket end="w"?></metadata>
<defs>
    <style>
      .cls-1 {
        fill: #fff;
        stroke: #fff;
        stroke-width: 1px;
        fill-rule: evenodd;
      }
    </style>
  </defs>
  <path id="Division_Two" data-name="Division Two" class="cls-1" d="M30.988,37.106q-4.614-4.614-12.939-4.614H7.111V68.185H17q9.009,0,13.806-4.675T35.6,50Q35.6,41.72,30.988,37.106Zm-3.516,23.84Q23.737,64.6,16.315,64.6H11.261V36.08h6.03q6.909,0,10.413,3.54t3.5,10.522Q31.208,57.3,27.472,60.946ZM47,41.427H42.951V68.185H47V41.427Zm-3.711-5.212A2.339,2.339,0,0,0,45,36.886a2.364,2.364,0,0,0,1.685-.671,2.684,2.684,0,0,0,.708-2.039,2.643,2.643,0,0,0-.708-2.026,2.53,2.53,0,0,0-3.393-.012,2.691,2.691,0,0,0-.684,2.038A2.74,2.74,0,0,0,43.293,36.215Zm22.9,31.97L76.349,41.427H72Q67.023,55.1,65.595,59.164a54.576,54.576,0,0,0-1.7,5.359H63.7A75.249,75.249,0,0,0,61.408,57.3L55.646,41.427H51.3L61.457,68.185h4.736ZM84.7,41.427H80.646V68.185H84.7V41.427Zm-3.711-5.212a2.339,2.339,0,0,0,1.709.671,2.364,2.364,0,0,0,1.685-.671,2.684,2.684,0,0,0,.708-2.039,2.643,2.643,0,0,0-.708-2.026,2.53,2.53,0,0,0-3.394-.012,2.691,2.691,0,0,0-.684,2.038A2.74,2.74,0,0,0,80.988,36.215Zm27.893,20.252q-1.672-1.758-6.433-3.491A39.511,39.511,0,0,1,97.76,51a5.413,5.413,0,0,1-1.77-1.44,3.032,3.032,0,0,1-.549-1.831,2.794,2.794,0,0,1,1.465-2.49,8.4,8.4,0,0,1,4.346-.9,19.386,19.386,0,0,1,7.3,1.66l1.441-3.3a21.362,21.362,0,0,0-8.447-1.758,12.4,12.4,0,0,0-7.3,1.892,6,6,0,0,0-2.661,5.164,6.144,6.144,0,0,0,.769,3.149A7.253,7.253,0,0,0,94.7,53.5a28.64,28.64,0,0,0,5.311,2.429,21.321,21.321,0,0,1,5.285,2.624,3.488,3.488,0,0,1-.354,5.762,9.659,9.659,0,0,1-4.883,1.013,17.268,17.268,0,0,1-4.26-.561,20.059,20.059,0,0,1-4.138-1.538v3.76q2.978,1.685,8.3,1.685,5.028,0,7.812-2.026a6.7,6.7,0,0,0,2.783-5.762A6.156,6.156,0,0,0,108.881,56.466ZM121.2,41.427h-4.053V68.185H121.2V41.427Zm-3.711-5.212a2.338,2.338,0,0,0,1.709.671,2.366,2.366,0,0,0,1.685-.671,2.688,2.688,0,0,0,.708-2.039,2.647,2.647,0,0,0-.708-2.026,2.531,2.531,0,0,0-3.394-.012,2.691,2.691,0,0,0-.684,2.038A2.74,2.74,0,0,0,117.487,36.215Zm32.092,8.46a11.319,11.319,0,0,0-8.923-3.735q-5.811,0-9.082,3.65T128.3,54.782a16.848,16.848,0,0,0,1.514,7.373,11.12,11.12,0,0,0,4.3,4.834,12.058,12.058,0,0,0,6.372,1.685q5.809,0,9.106-3.674t3.3-10.217Q152.887,48.409,149.579,44.674Zm-15.051,2.319a7.134,7.134,0,0,1,6.006-2.612,7.249,7.249,0,0,1,6.091,2.649q2.063,2.649,2.063,7.752,0,5.152-2.063,7.825a8.139,8.139,0,0,1-12.073-.012q-2.05-2.685-2.05-7.812Q132.5,49.606,134.528,46.993Zm47.827,21.191V50.729q0-5.127-2.441-7.459t-7.276-2.332a11.349,11.349,0,0,0-5,1.087,8.277,8.277,0,0,0-3.491,3.064h-0.195l-0.659-3.662h-3.3V68.185h4.053V54.147q0-5.224,1.953-7.5t6.152-2.27a6.067,6.067,0,0,1,4.663,1.611,6.983,6.983,0,0,1,1.489,4.883V68.185h4.053Zm32.91-32.007h11.3V32.492H199.811v3.686h11.3V68.185h4.15V36.178ZM257.99,68.185l7.4-26.758h-4.2q-4.663,17.871-5.09,19.7a25.813,25.813,0,0,0-.525,2.71h-0.2a51.987,51.987,0,0,0-1.856-7.056l-4.785-15.356h-4.395l-4.907,15.356q-0.44,1.294-1.037,3.5t-0.867,3.6h-0.195a62.3,62.3,0,0,0-1.551-7.1q-1.355-5.274-3.943-15.356h-4.248l7.3,26.758h4.688l5.053-15.649q0.733-2.319,1.709-6.592h0.2q1.269,5.1,1.733,6.543l4.907,15.7h4.81Zm32.019-23.511a11.32,11.32,0,0,0-8.923-3.735q-5.811,0-9.082,3.65t-3.272,10.193a16.834,16.834,0,0,0,1.514,7.373,11.114,11.114,0,0,0,4.3,4.834,12.058,12.058,0,0,0,6.372,1.685q5.81,0,9.106-3.674t3.3-10.217Q293.317,48.409,290.009,44.674Zm-15.051,2.319a7.131,7.131,0,0,1,6.006-2.612,7.25,7.25,0,0,1,6.091,2.649q2.063,2.649,2.063,7.752,0,5.152-2.063,7.825a8.139,8.139,0,0,1-12.073-.012q-2.05-2.685-2.051-7.812Q272.931,49.606,274.958,46.993Z" transform="translate(-6.625 -31)"/>
</svg>
