<svg xmlns="http://www.w3.org/2000/svg" width="286.219" height="34.813" viewBox="0 0 286.219 34.813">
  <metadata><?xpacket begin="﻿" id="W5M0MpCehiHzreSzNTczkc9d"?>
<x:xmpmeta xmlns:x="adobe:ns:meta/" x:xmptk="Adobe XMP Core 5.6-c142 79.160924, 2017/07/13-01:06:39        ">
   <rdf:RDF xmlns:rdf="http://www.w3.org/1999/02/22-rdf-syntax-ns#">
      <rdf:Description rdf:about=""/>
   </rdf:RDF>
</x:xmpmeta>
                                                                                                    
                                                                                                    
                                                                                                    
                                                                                                    
                                                                                                    
                                                                                                    
                                                                                                    
                                                                                                    
                                                                                                    
                                                                                                    
                                                                                                    
                                                                                                    
                                                                                                    
                                                                                                    
                                                                                                    
                                                                                                    
                                                                                                    
                                                                                                    
                                                                                                    
                                                                                                    
                           
<?xpacket end="w"?></metadata>
<defs>
    <style>
      .cls-1 {
        fill: #fff;
        stroke: #fff;
        stroke-width: 1px;
        fill-rule: evenodd;
      }
    </style>
  </defs>
  <path id="Division_Three" data-name="Division Three" class="cls-1" d="M28.136,39.6q-4.056-4.056-11.372-4.056H7.15V66.914h8.69q7.918,0,12.134-4.109t4.216-11.877Q32.191,43.654,28.136,39.6Zm-3.09,20.953Q21.763,63.76,15.24,63.76H10.8V38.7h5.3q6.072,0,9.152,3.111t3.079,9.248Q28.329,57.344,25.046,60.552ZM42.212,43.4H38.65V66.914h3.562V43.4ZM38.95,38.815a2.056,2.056,0,0,0,1.5.59,2.078,2.078,0,0,0,1.481-.59,2.36,2.36,0,0,0,.622-1.792,2.324,2.324,0,0,0-.622-1.781,2.224,2.224,0,0,0-2.983-.011,2.365,2.365,0,0,0-.6,1.792A2.409,2.409,0,0,0,38.95,38.815Zm20.127,28.1L68,43.4H64.184q-4.377,12.017-5.633,15.589A47.979,47.979,0,0,0,57.06,63.7H56.888a66.113,66.113,0,0,0-2.017-6.351L49.807,43.4H45.988l8.926,23.517h4.163ZM75.342,43.4H71.78V66.914h3.562V43.4ZM72.08,38.815a2.056,2.056,0,0,0,1.5.59,2.078,2.078,0,0,0,1.481-.59,2.359,2.359,0,0,0,.622-1.792,2.323,2.323,0,0,0-.622-1.781,2.224,2.224,0,0,0-2.983-.011,2.365,2.365,0,0,0-.6,1.792A2.409,2.409,0,0,0,72.08,38.815ZM96.6,56.614q-1.47-1.545-5.654-3.068a34.7,34.7,0,0,1-4.12-1.738,4.758,4.758,0,0,1-1.556-1.266,2.665,2.665,0,0,1-.483-1.609,2.455,2.455,0,0,1,1.288-2.189,7.383,7.383,0,0,1,3.819-.794,17.043,17.043,0,0,1,6.416,1.459l1.266-2.9a18.773,18.773,0,0,0-7.424-1.545,10.9,10.9,0,0,0-6.416,1.663,5.277,5.277,0,0,0-2.339,4.538,5.4,5.4,0,0,0,.676,2.768,6.375,6.375,0,0,0,2.06,2.071A25.173,25.173,0,0,0,88.8,56.142a18.745,18.745,0,0,1,4.645,2.307,3.066,3.066,0,0,1-.311,5.064,8.49,8.49,0,0,1-4.291.89,15.178,15.178,0,0,1-3.744-.493,17.62,17.62,0,0,1-3.637-1.352v3.3a14.93,14.93,0,0,0,7.3,1.48,11.5,11.5,0,0,0,6.866-1.781A5.891,5.891,0,0,0,98.065,60.5,5.412,5.412,0,0,0,96.6,56.614ZM107.42,43.4h-3.561V66.914h3.561V43.4Zm-3.261-4.581a2.055,2.055,0,0,0,1.5.59,2.08,2.08,0,0,0,1.481-.59,2.362,2.362,0,0,0,.622-1.792,2.326,2.326,0,0,0-.622-1.781,2.225,2.225,0,0,0-2.983-.011,2.364,2.364,0,0,0-.6,1.792A2.407,2.407,0,0,0,104.159,38.815Zm28.206,7.435a9.95,9.95,0,0,0-7.843-3.283,10.169,10.169,0,0,0-7.982,3.208q-2.876,3.208-2.875,8.958a14.8,14.8,0,0,0,1.33,6.48,9.776,9.776,0,0,0,3.776,4.249,10.6,10.6,0,0,0,5.6,1.48,10.2,10.2,0,0,0,8-3.229q2.9-3.229,2.9-8.98Q135.272,49.533,132.365,46.25Zm-13.229,2.038a6.27,6.27,0,0,1,5.279-2.3,6.37,6.37,0,0,1,5.353,2.328q1.814,2.328,1.813,6.813,0,4.528-1.813,6.877A7.153,7.153,0,0,1,119.158,62q-1.8-2.36-1.8-6.866Q117.355,50.585,119.136,48.289Zm42.035,18.625V51.572q0-4.506-2.146-6.555t-6.394-2.049a9.972,9.972,0,0,0-4.4.955,7.276,7.276,0,0,0-3.068,2.693h-0.172L144.413,43.4h-2.9V66.914h3.562V54.576q0-4.591,1.717-6.587t5.407-2a5.331,5.331,0,0,1,4.1,1.416,6.136,6.136,0,0,1,1.309,4.291V66.914h3.562ZM190.1,38.783h9.934v-3.24H176.513v3.24h9.935V66.914H190.1V38.783ZM223.87,66.914V51.572q0-4.463-2.157-6.512t-6.469-2.049a9.729,9.729,0,0,0-4.431.976,7.268,7.268,0,0,0-2.994,2.671h-0.214a22.08,22.08,0,0,0,.172-3.025V33.526h-3.562V66.914h3.562v-12.3q0-4.591,1.705-6.609t5.418-2.017a5.334,5.334,0,0,1,4.1,1.416,6.141,6.141,0,0,1,1.309,4.291V66.914h3.562Zm13.99-22.7a10.326,10.326,0,0,0-3.154,3.541h-0.172L234.126,43.4h-2.939V66.914h3.561V54.3a8.45,8.45,0,0,1,2.028-5.772,6.268,6.268,0,0,1,4.882-2.317,12.141,12.141,0,0,1,2.575.322l0.493-3.3a13.939,13.939,0,0,0-2.811-.258A7.1,7.1,0,0,0,237.86,44.212Zm25.266,22.777a18.837,18.837,0,0,0,3.573-1.169V62.644a18.943,18.943,0,0,1-7.511,1.588,7.234,7.234,0,0,1-5.589-2.146q-1.986-2.145-2.092-6.287h16.2V53.546a11.142,11.142,0,0,0-2.575-7.671,8.868,8.868,0,0,0-7-2.907,9.3,9.3,0,0,0-7.521,3.347q-2.8,3.347-2.8,9.034,0,5.644,3.015,8.819a10.8,10.8,0,0,0,8.229,3.176A20.078,20.078,0,0,0,263.126,66.989Zm-0.74-19.247a7.834,7.834,0,0,1,1.5,5.16H251.593a8.5,8.5,0,0,1,1.984-5.107,5.818,5.818,0,0,1,4.517-1.845A5.289,5.289,0,0,1,262.386,47.742ZM287.78,66.989a18.837,18.837,0,0,0,3.573-1.169V62.644a18.938,18.938,0,0,1-7.51,1.588,7.236,7.236,0,0,1-5.59-2.146q-1.984-2.145-2.092-6.287h16.2V53.546a11.147,11.147,0,0,0-2.575-7.671,8.871,8.871,0,0,0-7-2.907,9.3,9.3,0,0,0-7.521,3.347q-2.8,3.347-2.8,9.034,0,5.644,3.014,8.819a10.805,10.805,0,0,0,8.229,3.176A20.078,20.078,0,0,0,287.78,66.989Zm-0.74-19.247a7.834,7.834,0,0,1,1.5,5.16H276.247a8.5,8.5,0,0,1,1.985-5.107,5.817,5.817,0,0,1,4.517-1.845A5.287,5.287,0,0,1,287.04,47.742Z" transform="translate(-6.656 -33.031)"/>
</svg>
