<svg xmlns="http://www.w3.org/2000/svg" width="287.188" height="36.656" viewBox="0 0 287.188 36.656">
  <metadata><?xpacket begin="﻿" id="W5M0MpCehiHzreSzNTczkc9d"?>
<x:xmpmeta xmlns:x="adobe:ns:meta/" x:xmptk="Adobe XMP Core 5.6-c142 79.160924, 2017/07/13-01:06:39        ">
   <rdf:RDF xmlns:rdf="http://www.w3.org/1999/02/22-rdf-syntax-ns#">
      <rdf:Description rdf:about=""/>
   </rdf:RDF>
</x:xmpmeta>
                                                                                                    
                                                                                                    
                                                                                                    
                                                                                                    
                                                                                                    
                                                                                                    
                                                                                                    
                                                                                                    
                                                                                                    
                                                                                                    
                                                                                                    
                                                                                                    
                                                                                                    
                                                                                                    
                                                                                                    
                                                                                                    
                                                                                                    
                                                                                                    
                                                                                                    
                                                                                                    
                           
<?xpacket end="w"?></metadata>
<defs>
    <style>
      .cls-1 {
        fill: #fff;
        stroke: #fff;
        stroke-width: 1px;
        fill-rule: evenodd;
      }
    </style>
  </defs>
  <path id="Division_Four" data-name="Division Four" class="cls-1" d="M29.543,37.457q-4.421-4.422-12.4-4.422H6.664v34.2h9.475q8.632,0,13.229-4.48t4.6-12.949Q33.965,41.879,29.543,37.457ZM26.174,60.3Q22.6,63.8,15.483,63.8H10.641V36.474h5.778q6.62,0,9.978,3.392T29.754,49.95Q29.754,56.8,26.174,60.3ZM44.89,41.6H41.006v25.64H44.89V41.6ZM41.334,36.6a2.242,2.242,0,0,0,1.638.643,2.265,2.265,0,0,0,1.614-.643,2.572,2.572,0,0,0,.678-1.953,2.533,2.533,0,0,0-.678-1.942,2.425,2.425,0,0,0-3.252-.012,2.579,2.579,0,0,0-.655,1.953A2.626,2.626,0,0,0,41.334,36.6ZM63.278,67.238L73.01,41.6H68.846q-4.772,13.1-6.141,17a52.263,52.263,0,0,0-1.626,5.135H60.891a72.043,72.043,0,0,0-2.2-6.925L53.171,41.6H49.007l9.732,25.64h4.539ZM81.011,41.6H77.127v25.64h3.883V41.6ZM77.455,36.6a2.241,2.241,0,0,0,1.638.643,2.265,2.265,0,0,0,1.614-.643,2.573,2.573,0,0,0,.678-1.953,2.533,2.533,0,0,0-.678-1.942,2.425,2.425,0,0,0-3.252-.012A2.579,2.579,0,0,0,76.8,34.65,2.626,2.626,0,0,0,77.455,36.6Zm26.728,19.406q-1.6-1.684-6.165-3.345a37.828,37.828,0,0,1-4.492-1.895,5.188,5.188,0,0,1-1.7-1.38,2.905,2.905,0,0,1-.526-1.755,2.677,2.677,0,0,1,1.4-2.386,8.05,8.05,0,0,1,4.164-.866,18.587,18.587,0,0,1,7,1.591l1.38-3.158a20.468,20.468,0,0,0-8.094-1.684,11.882,11.882,0,0,0-6.995,1.813,5.753,5.753,0,0,0-2.55,4.948,5.887,5.887,0,0,0,.737,3.018,6.95,6.95,0,0,0,2.246,2.258,27.45,27.45,0,0,0,5.088,2.328,20.451,20.451,0,0,1,5.065,2.515,3.343,3.343,0,0,1-.34,5.521,9.255,9.255,0,0,1-4.678.971,16.544,16.544,0,0,1-4.082-.538,19.214,19.214,0,0,1-3.965-1.474v3.6a16.278,16.278,0,0,0,7.954,1.614q4.819,0,7.486-1.942a6.423,6.423,0,0,0,2.667-5.521A5.9,5.9,0,0,0,104.183,56.009Zm11.8-14.411H112.1v25.64h3.884V41.6ZM112.429,36.6a2.242,2.242,0,0,0,1.638.643,2.266,2.266,0,0,0,1.614-.643,2.573,2.573,0,0,0,.678-1.953,2.534,2.534,0,0,0-.678-1.942,2.425,2.425,0,0,0-3.252-.012,2.578,2.578,0,0,0-.655,1.953A2.625,2.625,0,0,0,112.429,36.6Zm30.752,8.106a10.849,10.849,0,0,0-8.551-3.579q-5.568,0-8.7,3.5t-3.134,9.767a16.142,16.142,0,0,0,1.45,7.065,10.66,10.66,0,0,0,4.117,4.632,11.56,11.56,0,0,0,6.106,1.614,11.121,11.121,0,0,0,8.726-3.521q3.159-3.521,3.159-9.791Q146.351,48.289,143.181,44.709Zm-14.423,2.222a6.836,6.836,0,0,1,5.755-2.5,6.946,6.946,0,0,1,5.837,2.538q1.977,2.539,1.977,7.428,0,4.937-1.977,7.5a7.8,7.8,0,0,1-11.568-.012q-1.967-2.573-1.966-7.486Q126.816,49.435,128.758,46.932Zm45.83,20.306V50.511q0-4.913-2.34-7.147t-6.971-2.234a10.87,10.87,0,0,0-4.8,1.041,7.935,7.935,0,0,0-3.346,2.936h-0.187L156.317,41.6h-3.159v25.64h3.884V53.786q0-5.006,1.871-7.182t5.9-2.176a5.813,5.813,0,0,1,4.468,1.544,6.694,6.694,0,0,1,1.427,4.679V67.238h3.884Zm24.985-14.621h14.176V49.084H199.573V36.568h15.089V33.036H195.6v34.2h3.977V52.617ZM238.7,44.709a10.845,10.845,0,0,0-8.55-3.579q-5.568,0-8.7,3.5t-3.135,9.767a16.142,16.142,0,0,0,1.451,7.065,10.653,10.653,0,0,0,4.117,4.632,11.557,11.557,0,0,0,6.106,1.614,11.121,11.121,0,0,0,8.726-3.521q3.159-3.521,3.158-9.791Q241.869,48.289,238.7,44.709Zm-14.422,2.222a6.835,6.835,0,0,1,5.755-2.5,6.947,6.947,0,0,1,5.837,2.538q1.977,2.539,1.977,7.428,0,4.937-1.977,7.5a7.8,7.8,0,0,1-11.569-.012q-1.965-2.573-1.965-7.486Q222.335,49.435,224.277,46.932ZM248.4,41.6V58.372q0,4.89,2.328,7.112t7.007,2.222a11.132,11.132,0,0,0,4.831-1.006,7.744,7.744,0,0,0,3.31-2.9h0.21l0.562,3.439h3.2V41.6h-3.884V55.073q0,4.983-1.859,7.182t-5.884,2.2a5.812,5.812,0,0,1-4.468-1.544,6.689,6.689,0,0,1-1.427-4.679V41.6H248.4Zm36.963,0.889a11.273,11.273,0,0,0-3.439,3.86h-0.187L281.289,41.6h-3.2v25.64h3.883V53.482a9.212,9.212,0,0,1,2.211-6.293,6.834,6.834,0,0,1,5.322-2.527,13.219,13.219,0,0,1,2.807.351l0.538-3.6a15.193,15.193,0,0,0-3.064-.281A7.742,7.742,0,0,0,285.359,42.487Z" transform="translate(-6.156 -31.563)"/>
</svg>
