<svg xmlns="http://www.w3.org/2000/svg" width="285.938" height="29.313" viewBox="0 0 285.938 29.313">
  <metadata><?xpacket begin="﻿" id="W5M0MpCehiHzreSzNTczkc9d"?>
<x:xmpmeta xmlns:x="adobe:ns:meta/" x:xmptk="Adobe XMP Core 5.6-c142 79.160924, 2017/07/13-01:06:39        ">
   <rdf:RDF xmlns:rdf="http://www.w3.org/1999/02/22-rdf-syntax-ns#">
      <rdf:Description rdf:about=""/>
   </rdf:RDF>
</x:xmpmeta>
                                                                                                    
                                                                                                    
                                                                                                    
                                                                                                    
                                                                                                    
                                                                                                    
                                                                                                    
                                                                                                    
                                                                                                    
                                                                                                    
                                                                                                    
                                                                                                    
                                                                                                    
                                                                                                    
                                                                                                    
                                                                                                    
                                                                                                    
                                                                                                    
                                                                                                    
                                                                                                    
                           
<?xpacket end="w"?></metadata>
<defs>
    <style>
      .cls-1 {
        fill: #fff;
        stroke: #fff;
        stroke-width: 1px;
        fill-rule: evenodd;
      }
    </style>
  </defs>
  <path id="Premier_Division" data-name="Premier Division" class="cls-1" d="M14.794,37.293H7.753V64.457h3.159V53.774h3.2q5.239,0,8.054-2.22a7.607,7.607,0,0,0,2.815-6.345q0-7.915-10.182-7.915h0Zm-3.883,2.731h3.53q3.735,0,5.5,1.319a4.687,4.687,0,0,1,1.765,4.013A5,5,0,0,1,19.83,49.7q-1.877,1.356-6.075,1.356H10.911V40.025ZM35.975,44.8a8.95,8.95,0,0,0-2.731,3.066H33.1l-0.353-3.772H30.2V64.457h3.084V53.532a7.317,7.317,0,0,1,1.756-5,5.427,5.427,0,0,1,4.227-2.007,10.509,10.509,0,0,1,2.23.279l0.427-2.861a12.073,12.073,0,0,0-2.434-.223A6.149,6.149,0,0,0,35.975,44.8ZM57.853,64.522a16.311,16.311,0,0,0,3.093-1.013V60.76a16.4,16.4,0,0,1-6.5,1.375,6.264,6.264,0,0,1-4.84-1.858,8.07,8.07,0,0,1-1.812-5.444H61.82V52.882a9.649,9.649,0,0,0-2.23-6.642,7.68,7.68,0,0,0-6.057-2.517,8.054,8.054,0,0,0-6.512,2.9A11.806,11.806,0,0,0,44.6,54.442q0,4.887,2.61,7.636a9.355,9.355,0,0,0,7.125,2.75A17.383,17.383,0,0,0,57.853,64.522ZM57.212,47.856a6.782,6.782,0,0,1,1.3,4.468H47.866A7.364,7.364,0,0,1,49.585,47.9,5.037,5.037,0,0,1,53.5,46.3,4.578,4.578,0,0,1,57.212,47.856Zm38.906,16.6V51.172q0-3.9-1.719-5.676a6.9,6.9,0,0,0-5.174-1.774,8.186,8.186,0,0,0-3.939.929,6.493,6.493,0,0,0-2.638,2.527H82.5q-1.468-3.456-6.243-3.456a7.52,7.52,0,0,0-3.558.836,6.061,6.061,0,0,0-2.462,2.322H70.087l-0.5-2.787H67.078V64.457h3.084V53.774q0-3.957,1.347-5.695a5.036,5.036,0,0,1,4.245-1.737,4.05,4.05,0,0,1,3.251,1.217,5.5,5.5,0,0,1,1.04,3.651V64.457H83.13V53.086A7.858,7.858,0,0,1,84.505,48a5.219,5.219,0,0,1,4.255-1.654,4.025,4.025,0,0,1,3.233,1.217,5.5,5.5,0,0,1,1.04,3.651V64.457h3.084Zm9.438-20.363h-3.084V64.457h3.084V44.094Zm-2.824-3.967a1.779,1.779,0,0,0,1.3.511,1.8,1.8,0,0,0,1.282-.511,2.04,2.04,0,0,0,.539-1.551,2.009,2.009,0,0,0-.539-1.542,1.925,1.925,0,0,0-2.582-.009,2.048,2.048,0,0,0-.52,1.551A2.085,2.085,0,0,0,102.732,40.127Zm21.487,24.4a16.319,16.319,0,0,0,3.094-1.013V60.76a16.4,16.4,0,0,1-6.5,1.375,6.264,6.264,0,0,1-4.84-1.858,8.07,8.07,0,0,1-1.812-5.444h14.028V52.882a9.647,9.647,0,0,0-2.23-6.642,7.679,7.679,0,0,0-6.057-2.517,8.054,8.054,0,0,0-6.512,2.9,11.808,11.808,0,0,0-2.424,7.822q0,4.887,2.61,7.636a9.354,9.354,0,0,0,7.125,2.75A17.381,17.381,0,0,0,124.219,64.522Zm-0.641-16.666a6.782,6.782,0,0,1,1.3,4.468H114.233a7.365,7.365,0,0,1,1.718-4.422,5.038,5.038,0,0,1,3.911-1.6A4.579,4.579,0,0,1,123.578,47.856ZM139.222,44.8a8.949,8.949,0,0,0-2.731,3.066h-0.149l-0.353-3.772h-2.545V64.457h3.084V53.532a7.315,7.315,0,0,1,1.756-5,5.427,5.427,0,0,1,4.227-2.007,10.5,10.5,0,0,1,2.229.279l0.428-2.861a12.078,12.078,0,0,0-2.434-.223A6.15,6.15,0,0,0,139.222,44.8ZM177.5,40.805q-3.512-3.512-9.847-3.512h-8.324V64.457h7.525q6.857,0,10.507-3.558t3.651-10.284Q181.008,44.316,177.5,40.805Zm-2.675,18.143q-2.843,2.778-8.491,2.778h-3.846v-21.7h4.589q5.257,0,7.924,2.694t2.667,8.008Q177.664,56.171,174.821,58.948Zm14.864-14.854H186.6V64.457h3.085V44.094Zm-2.825-3.967a1.888,1.888,0,0,0,2.583,0,2.043,2.043,0,0,0,.539-1.551,2.012,2.012,0,0,0-.539-1.542,1.927,1.927,0,0,0-2.583-.009,2.052,2.052,0,0,0-.52,1.551A2.089,2.089,0,0,0,186.86,40.127Zm17.428,24.33,7.729-20.363H208.71q-3.791,10.4-4.877,13.5a41.326,41.326,0,0,0-1.291,4.078h-0.149a57.58,57.58,0,0,0-1.746-5.5l-4.385-12.077h-3.307l7.729,20.363h3.6Zm14.084-20.363h-3.085V64.457h3.085V44.094Zm-2.825-3.967a1.888,1.888,0,0,0,2.583,0,2.043,2.043,0,0,0,.539-1.551,2.012,2.012,0,0,0-.539-1.542,1.927,1.927,0,0,0-2.583-.009,2.052,2.052,0,0,0-.52,1.551A2.089,2.089,0,0,0,215.547,40.127Zm21.228,15.412a13.34,13.34,0,0,0-4.9-2.657,30.014,30.014,0,0,1-3.567-1.5,4.106,4.106,0,0,1-1.347-1.1,2.305,2.305,0,0,1-.418-1.394,2.125,2.125,0,0,1,1.114-1.9,6.4,6.4,0,0,1,3.308-.687,14.76,14.76,0,0,1,5.555,1.263l1.1-2.508a16.254,16.254,0,0,0-6.429-1.338,9.438,9.438,0,0,0-5.555,1.44,4.569,4.569,0,0,0-2.025,3.93,4.678,4.678,0,0,0,.585,2.4,5.518,5.518,0,0,0,1.784,1.793,21.8,21.8,0,0,0,4.041,1.849,16.218,16.218,0,0,1,4.022,2,2.654,2.654,0,0,1-.269,4.385,7.353,7.353,0,0,1-3.716.771,13.142,13.142,0,0,1-3.242-.427,15.249,15.249,0,0,1-3.149-1.17v2.861a12.926,12.926,0,0,0,6.317,1.282,9.954,9.954,0,0,0,5.945-1.542,5.1,5.1,0,0,0,2.118-4.385A4.687,4.687,0,0,0,236.775,55.539Zm9.373-11.445h-3.084V64.457h3.084V44.094Zm-2.824-3.967a1.781,1.781,0,0,0,1.3.511,1.8,1.8,0,0,0,1.282-.511,2.043,2.043,0,0,0,.538-1.551,2.012,2.012,0,0,0-.538-1.542,1.927,1.927,0,0,0-2.583-.009,2.048,2.048,0,0,0-.52,1.551A2.085,2.085,0,0,0,243.324,40.127Zm24.423,6.438a8.615,8.615,0,0,0-6.791-2.843,8.807,8.807,0,0,0-6.912,2.778q-2.49,2.778-2.489,7.757a12.82,12.82,0,0,0,1.152,5.611,8.462,8.462,0,0,0,3.27,3.679,9.178,9.178,0,0,0,4.849,1.282,8.832,8.832,0,0,0,6.93-2.8q2.508-2.8,2.508-7.776A11.186,11.186,0,0,0,267.747,46.565ZM256.293,48.33a5.428,5.428,0,0,1,4.57-1.988,5.518,5.518,0,0,1,4.636,2.016,9.466,9.466,0,0,1,1.57,5.9,9.62,9.62,0,0,1-1.57,5.955,6.194,6.194,0,0,1-9.188-.009,9.668,9.668,0,0,1-1.561-5.946Q254.75,50.318,256.293,48.33Zm36.4,16.127V51.172q0-3.9-1.858-5.676a7.736,7.736,0,0,0-5.537-1.774,8.632,8.632,0,0,0-3.808.827,6.292,6.292,0,0,0-2.657,2.332h-0.149l-0.5-2.787h-2.508V64.457h3.084V53.774q0-3.976,1.487-5.7a5.852,5.852,0,0,1,4.682-1.728,4.619,4.619,0,0,1,3.549,1.226,5.317,5.317,0,0,1,1.133,3.716V64.457h3.084Z" transform="translate(-7.25 -36.031)"/>
</svg>
